<svg id="Line" xmlns="http://www.w3.org/2000/svg" viewBox="0 0 115.6 115.6"><defs><style>.cls-1{fill:#f68e39;}</style></defs><path class="cls-1" d="M49.6,48.6a1.66,1.66,0,0,0-1.2.5,2.54,2.54,0,0,0-.4,1.6V63.9a2.54,2.54,0,0,0,.5,1.6,1.69,1.69,0,0,0,2.4,0,2.35,2.35,0,0,0,.5-1.6V50.7a2.54,2.54,0,0,0-.5-1.6A1.73,1.73,0,0,0,49.6,48.6Z" transform="translate(-1.5 -1.2)"/><path class="cls-1" d="M67.7,48.6a1.43,1.43,0,0,0-1.1.5,2.08,2.08,0,0,0-.4,1.5v10l-6.5-9.9a9.22,9.22,0,0,1-.5-.8,4.23,4.23,0,0,0-.5-.7,2.09,2.09,0,0,0-.6-.4,2,2,0,0,0-.8-.1,2,2,0,0,0-1.1.3,1.78,1.78,0,0,0-.7.8,3.92,3.92,0,0,0-.2,1.3v13a2,2,0,0,0,.4,1.4,1.66,1.66,0,0,0,1.2.5,1.43,1.43,0,0,0,1.1-.5,2.08,2.08,0,0,0,.4-1.5V54.2L64.8,64a3.51,3.51,0,0,1,.5.8c.1.3.4.5.6.7a1.61,1.61,0,0,0,.7.4,2.2,2.2,0,0,0,.8.1c1.2,0,1.8-.7,1.8-2.2V50.6a2.41,2.41,0,0,0-.4-1.5A1.29,1.29,0,0,0,67.7,48.6Z" transform="translate(-1.5 -1.2)"/><path class="cls-1" d="M43.9,62.9H37V50.7a2.54,2.54,0,0,0-.5-1.6,1.69,1.69,0,0,0-2.4,0,2.25,2.25,0,0,0-.5,1.5V63.5a2.35,2.35,0,0,0,.5,1.6,2.35,2.35,0,0,0,1.6.5h8.2a1.7,1.7,0,0,0,1.3-.4,1.45,1.45,0,0,0,0-2A2.77,2.77,0,0,0,43.9,62.9Z" transform="translate(-1.5 -1.2)"/><path class="cls-1" d="M59.3,1.2A57.8,57.8,0,1,0,117.1,59,57.83,57.83,0,0,0,59.3,1.2ZM94.2,62.8a29.79,29.79,0,0,1-9.4,12.9c-6.2,5.9-13.5,10.5-18,13.7-8.4,6-10.2,5.5-11,4.8s1.5-4.4,1.7-7.6c.1-1.8-1.7-2.3-2.2-2.4C37,82.5,22.8,69.6,22.8,53.9c0-16.8,16.3-30.5,36.4-30.5S95.6,37.1,95.6,53.9A21.91,21.91,0,0,1,94.2,62.8Z" transform="translate(-1.5 -1.2)"/><path class="cls-1" d="M84.3,63H76.4V58.2h7.1a1.59,1.59,0,0,0,1.2-.4,1.21,1.21,0,0,0,0-1.8,1.92,1.92,0,0,0-1.2-.3H76.4V51.6H84a1.59,1.59,0,0,0,1.2-.4,1.16,1.16,0,0,0,.4-1,1,1,0,0,0-.4-.9,2.14,2.14,0,0,0-1.2-.4H75a3.73,3.73,0,0,0-1.2.2,1.58,1.58,0,0,0-.7.7c0,.3-.1.7-.1,1.2V63.6a1.81,1.81,0,0,0,2.1,2.1h9.2a1.59,1.59,0,0,0,1.2-.4,1.16,1.16,0,0,0,.4-1,1.28,1.28,0,0,0-.4-1A2.13,2.13,0,0,0,84.3,63Z" transform="translate(-1.5 -1.2)"/></svg>