<svg id="Layer_1" data-name="Layer 1" xmlns="http://www.w3.org/2000/svg" viewBox="0 0 1000 1000"><defs><style>.cls-1{fill:#f68e39;fill-rule:evenodd;}</style></defs><path class="cls-1" d="M507,0c276,0,500,224,500,500s-224,500-500,500S7,776,7,500,231,0,507,0ZM418.9,765.9c221.3,0,342.2-183.3,342.2-342.2,0-5.2,0-10.5-.2-15.5A247.66,247.66,0,0,0,821,345.8a244.59,244.59,0,0,1-69.1,19,120.58,120.58,0,0,0,52.9-66.6,244.59,244.59,0,0,1-76.3,29.2,120.34,120.34,0,0,0-208,82.3,111.76,111.76,0,0,0,3.2,27.4A341.2,341.2,0,0,1,275.8,311.4a120.89,120.89,0,0,0-16.2,60.4,119.61,119.61,0,0,0,53.6,100,118,118,0,0,1-54.4-15v1.5a120.38,120.38,0,0,0,96.5,118,121.88,121.88,0,0,1-31.7,4.2,114.93,114.93,0,0,1-22.7-2.2,120.08,120.08,0,0,0,112.2,83.6,241.65,241.65,0,0,1-149.4,51.4,228,228,0,0,1-28.7-1.7,335.74,335.74,0,0,0,183.9,54.3Z" transform="translate(-7)"/></svg>