<?xml version="1.0" encoding="utf-8"?>
<!-- Generator: Adobe Illustrator 24.1.0, SVG Export Plug-In . SVG Version: 6.00 Build 0)  -->
<svg version="1.1" id="Layer_1" xmlns="http://www.w3.org/2000/svg" xmlns:xlink="http://www.w3.org/1999/xlink" x="0px" y="0px"
	 viewBox="0 0 450 150" style="enable-background:new 0 0 450 150;" xml:space="preserve">
<style type="text/css">
	.st0{fill:#F78E39;}
</style>
<g>
	<path class="st0" d="M14.06,46h7.44v10.63c2.94-4.04,6.32-7.07,10.14-9.09c3.82-2.02,8.09-3.03,12.8-3.03
		c8.21,0,15.24,2.96,21.08,8.88c5.84,5.92,8.76,13.04,8.76,21.37c0,8.51-2.89,15.73-8.68,21.66c-5.79,5.94-12.77,8.9-20.95,8.9
		c-4.6,0-8.83-0.96-12.69-2.87c-3.86-1.91-7.35-4.77-10.46-8.56v31.1h-7.44V46z M43.83,51.69c-6.44,0-11.85,2.25-16.26,6.74
		c-4.4,4.5-6.6,10.09-6.6,16.78c0,4.39,0.98,8.34,2.94,11.84c1.96,3.5,4.77,6.28,8.43,8.34c3.66,2.05,7.52,3.08,11.59,3.08
		c4,0,7.75-1.04,11.27-3.11c3.52-2.07,6.32-4.96,8.41-8.68c2.09-3.72,3.13-7.61,3.13-11.68c0-4.11-1.04-8-3.1-11.68
		c-2.07-3.68-4.85-6.54-8.35-8.58C51.78,52.7,47.96,51.69,43.83,51.69z"/>
	<path class="st0" d="M115.59,44.51c8.91,0,16.3,3.23,22.15,9.68c5.33,5.88,7.99,12.85,7.99,20.89c0,8.08-2.81,15.14-8.44,21.19
		c-5.63,6.04-12.86,9.06-21.7,9.06c-8.88,0-16.13-3.02-21.75-9.06c-5.63-6.04-8.44-13.1-8.44-21.19c0-8.01,2.66-14.96,7.99-20.84
		C99.24,47.75,106.65,44.51,115.59,44.51z M115.57,51.79c-6.19,0-11.51,2.29-15.95,6.86s-6.67,10.1-6.67,16.59
		c0,4.18,1.01,8.08,3.04,11.7c2.03,3.62,4.77,6.41,8.22,8.37c3.45,1.97,7.24,2.95,11.36,2.95c4.13,0,7.91-0.98,11.36-2.95
		c3.45-1.97,6.19-4.76,8.22-8.37c2.03-3.62,3.04-7.51,3.04-11.7c0-6.49-2.23-12.01-6.7-16.59S121.72,51.79,115.57,51.79z"/>
	<path class="st0" d="M186.88,44.51c8.91,0,16.3,3.23,22.15,9.68c5.33,5.88,7.99,12.85,7.99,20.89c0,8.08-2.81,15.14-8.44,21.19
		c-5.63,6.04-12.86,9.06-21.7,9.06c-8.88,0-16.13-3.02-21.75-9.06c-5.63-6.04-8.44-13.1-8.44-21.19c0-8.01,2.66-14.96,7.99-20.84
		C170.53,47.75,177.94,44.51,186.88,44.51z M186.86,51.79c-6.19,0-11.51,2.29-15.95,6.86s-6.67,10.1-6.67,16.59
		c0,4.18,1.01,8.08,3.04,11.7c2.03,3.62,4.77,6.41,8.22,8.37c3.45,1.97,7.24,2.95,11.36,2.95c4.13,0,7.91-0.98,11.36-2.95
		c3.45-1.97,6.19-4.76,8.22-8.37c2.03-3.62,3.04-7.51,3.04-11.7c0-6.49-2.23-12.01-6.7-16.59S193.01,51.79,186.86,51.79z"/>
	<path class="st0" d="M229.68,23.67h7.44v80.17h-7.44V23.67z"/>
	<path class="st0" d="M247.11,46h7.92l19.42,42.16L293.63,46h7.97l-26.47,57.84h-1.38L247.11,46z"/>
	<path class="st0" d="M315.51,22.18c1.69,0,3.14,0.6,4.34,1.81c1.2,1.21,1.8,2.66,1.8,4.36c0,1.67-0.6,3.1-1.8,4.31
		c-1.2,1.21-2.65,1.81-4.34,1.81c-1.66,0-3.09-0.6-4.29-1.81c-1.2-1.2-1.8-2.64-1.8-4.31c0-1.7,0.6-3.15,1.8-4.36
		C312.42,22.78,313.85,22.18,315.51,22.18z M311.81,46h7.44v57.84h-7.44V46z"/>
	<path class="st0" d="M333.61,23.67h7.44v80.17h-7.44V23.67z"/>
	<path class="st0" d="M355.4,23.67h7.44v80.17h-7.44V23.67z"/>
	<path class="st0" d="M435.94,46v57.84h-7.34v-9.94c-3.12,3.79-6.62,6.65-10.5,8.56c-3.88,1.91-8.13,2.87-12.73,2.87
		c-8.19,0-15.18-2.97-20.97-8.9c-5.79-5.94-8.69-13.16-8.69-21.66c0-8.33,2.92-15.45,8.77-21.37c5.85-5.92,12.88-8.88,21.1-8.88
		c4.75,0,9.05,1.01,12.89,3.03c3.85,2.02,7.22,5.05,10.13,9.09V46H435.94z M406.2,51.69c-4.14,0-7.96,1.02-11.47,3.05
		c-3.51,2.04-6.29,4.9-8.36,8.58c-2.07,3.68-3.11,7.58-3.11,11.68c0,4.07,1.04,7.97,3.13,11.68c2.09,3.72,4.89,6.61,8.42,8.68
		c3.52,2.07,7.3,3.11,11.34,3.11c4.07,0,7.93-1.03,11.58-3.08c3.65-2.05,6.45-4.83,8.42-8.34c1.96-3.5,2.95-7.45,2.95-11.84
		c0-6.69-2.2-12.28-6.61-16.78C418.07,53.93,412.64,51.69,406.2,51.69z"/>
</g>
</svg>
